<svg xmlns="http://www.w3.org/2000/svg" viewBox="0 0 912 96"><defs><style>.cls-1{fill:#870000;}.cls-2{fill:#fc7303;}</style></defs><g id="Слой_2" data-name="Слой 2"><g id="Слой_1-2" data-name="Слой 1"><rect class="cls-1" x="0.5" y="0.5" width="18" height="92" rx="4.09"/><path class="cls-1" d="M14.41,1A3.59,3.59,0,0,1,18,4.59V88.41A3.59,3.59,0,0,1,14.41,92H4.59A3.59,3.59,0,0,1,1,88.41V4.59A3.59,3.59,0,0,1,4.59,1h9.82m0-1H4.59A4.58,4.58,0,0,0,0,4.59V88.41A4.58,4.58,0,0,0,4.59,93h9.82A4.58,4.58,0,0,0,19,88.41V4.59A4.58,4.58,0,0,0,14.41,0Z"/><rect class="cls-1" x="0.5" y="0.5" width="37" height="18" rx="4"/><path class="cls-1" d="M33.5,1A3.5,3.5,0,0,1,37,4.5v10A3.5,3.5,0,0,1,33.5,18H4.5A3.5,3.5,0,0,1,1,14.5V4.5A3.5,3.5,0,0,1,4.5,1h29m0-1H4.5A4.49,4.49,0,0,0,0,4.5v10A4.49,4.49,0,0,0,4.5,19h29A4.49,4.49,0,0,0,38,14.5V4.5A4.49,4.49,0,0,0,33.5,0Z"/><rect class="cls-1" x="0.5" y="74.5" width="37" height="18" rx="4"/><path class="cls-1" d="M33.5,75A3.5,3.5,0,0,1,37,78.5v10A3.5,3.5,0,0,1,33.5,92H4.5A3.5,3.5,0,0,1,1,88.5v-10A3.5,3.5,0,0,1,4.5,75h29m0-1H4.5A4.49,4.49,0,0,0,0,78.5v10A4.49,4.49,0,0,0,4.5,93h29A4.49,4.49,0,0,0,38,88.5v-10A4.49,4.49,0,0,0,33.5,74Z"/><rect class="cls-1" x="34.5" y="16.5" width="20" height="61" rx="4.09"/><path class="cls-1" d="M50.41,17A3.59,3.59,0,0,1,54,20.59V73.41A3.59,3.59,0,0,1,50.41,77H38.59A3.59,3.59,0,0,1,35,73.41V20.59A3.59,3.59,0,0,1,38.59,17H50.41m0-1H38.59A4.58,4.58,0,0,0,34,20.59V73.41A4.58,4.58,0,0,0,38.59,78H50.41A4.58,4.58,0,0,0,55,73.41V20.59A4.58,4.58,0,0,0,50.41,16Z"/><rect class="cls-1" x="65.5" y="48.5" width="9" height="44" rx="1.57"/><path class="cls-1" d="M72.93,49A1.07,1.07,0,0,1,74,50.07V90.93A1.07,1.07,0,0,1,72.93,92H67.07A1.07,1.07,0,0,1,66,90.93V50.07A1.07,1.07,0,0,1,67.07,49h5.86m0-1H67.07A2.06,2.06,0,0,0,65,50.07V90.93A2.06,2.06,0,0,0,67.07,93h5.86A2.06,2.06,0,0,0,75,90.93V50.07A2.06,2.06,0,0,0,72.93,48Z"/><rect class="cls-1" x="72.5" y="56.5" width="10" height="10" rx="0.7"/><path class="cls-1" d="M81.8,57a.2.2,0,0,1,.2.2v8.6a.2.2,0,0,1-.2.2H73.2a.2.2,0,0,1-.2-.2V57.2a.2.2,0,0,1,.2-.2h8.6m0-1H73.2A1.2,1.2,0,0,0,72,57.2v8.6A1.2,1.2,0,0,0,73.2,67h8.6A1.2,1.2,0,0,0,83,65.8V57.2A1.2,1.2,0,0,0,81.8,56Z"/><rect class="cls-1" x="81.5" y="48.5" width="10" height="10" rx="0.7"/><path class="cls-1" d="M90.8,49a.2.2,0,0,1,.2.2v8.6a.2.2,0,0,1-.2.2H82.2a.2.2,0,0,1-.2-.2V49.2a.2.2,0,0,1,.2-.2h8.6m0-1H82.2A1.2,1.2,0,0,0,81,49.2v8.6A1.2,1.2,0,0,0,82.2,59h8.6A1.2,1.2,0,0,0,92,57.8V49.2A1.2,1.2,0,0,0,90.8,48Z"/><rect class="cls-1" x="102.5" y="48.5" width="10" height="44" rx="1.78"/><path class="cls-1" d="M110.72,49A1.29,1.29,0,0,1,112,50.28V90.72A1.29,1.29,0,0,1,110.72,92h-6.44A1.29,1.29,0,0,1,103,90.72V50.28A1.29,1.29,0,0,1,104.28,49h6.44m0-1h-6.44A2.28,2.28,0,0,0,102,50.28V90.72A2.28,2.28,0,0,0,104.28,93h6.44A2.28,2.28,0,0,0,113,90.72V50.28A2.28,2.28,0,0,0,110.72,48Z"/><rect class="cls-1" x="110.5" y="48.5" width="16" height="10" rx="0.7"/><path class="cls-1" d="M125.8,49a.2.2,0,0,1,.2.2v8.6a.2.2,0,0,1-.2.2H111.2a.2.2,0,0,1-.2-.2V49.2a.2.2,0,0,1,.2-.2h14.6m0-1H111.2a1.2,1.2,0,0,0-1.2,1.2v8.6a1.2,1.2,0,0,0,1.2,1.2h14.6a1.2,1.2,0,0,0,1.2-1.2V49.2a1.2,1.2,0,0,0-1.2-1.2Z"/><rect class="cls-1" x="124.5" y="48.5" width="10" height="44" rx="1.41"/><path class="cls-1" d="M133.09,49a.91.91,0,0,1,.91.91V91.09a.91.91,0,0,1-.91.91h-7.18a.91.91,0,0,1-.91-.91V49.91a.91.91,0,0,1,.91-.91h7.18m0-1h-7.18A1.92,1.92,0,0,0,124,49.91V91.09A1.92,1.92,0,0,0,125.91,93h7.18A1.92,1.92,0,0,0,135,91.09V49.91A1.92,1.92,0,0,0,133.09,48Z"/><rect class="cls-1" x="111.5" y="69.5" width="14" height="10" rx="0.7"/><path class="cls-1" d="M124.8,70a.2.2,0,0,1,.2.2v8.6a.2.2,0,0,1-.2.2H112.2a.2.2,0,0,1-.2-.2V70.2a.2.2,0,0,1,.2-.2h12.6m0-1H112.2a1.2,1.2,0,0,0-1.2,1.2v8.6a1.2,1.2,0,0,0,1.2,1.2h12.6a1.2,1.2,0,0,0,1.2-1.2V70.2a1.2,1.2,0,0,0-1.2-1.2Z"/><rect class="cls-1" x="145.5" y="48.5" width="10" height="44" rx="1.54"/><path class="cls-1" d="M154,49a1,1,0,0,1,1,1V91a1,1,0,0,1-1,1H147a1,1,0,0,1-1-1V50a1,1,0,0,1,1-1H154m0-1H147a2,2,0,0,0-2,2V91a2,2,0,0,0,2,2H154a2,2,0,0,0,2-2V50a2,2,0,0,0-2-2Z"/><rect class="cls-1" x="154.5" y="82.5" width="23" height="10" rx="0.7"/><path class="cls-1" d="M176.8,83a.2.2,0,0,1,.2.2v8.6a.2.2,0,0,1-.2.2H155.2a.2.2,0,0,1-.2-.2V83.2a.2.2,0,0,1,.2-.2h21.6m0-1H155.2a1.2,1.2,0,0,0-1.2,1.2v8.6a1.2,1.2,0,0,0,1.2,1.2h21.6a1.2,1.2,0,0,0,1.2-1.2V83.2a1.2,1.2,0,0,0-1.2-1.2Z"/><rect class="cls-1" x="153.5" y="48.5" width="24" height="10" rx="1.4"/><path class="cls-1" d="M176.1,49a.9.9,0,0,1,.9.9v7.2a.9.9,0,0,1-.9.9H154.9a.9.9,0,0,1-.9-.9V49.9a.9.9,0,0,1,.9-.9h21.2m0-1H154.9a1.9,1.9,0,0,0-1.9,1.9v7.2a1.9,1.9,0,0,0,1.9,1.9h21.2a1.9,1.9,0,0,0,1.9-1.9V49.9a1.9,1.9,0,0,0-1.9-1.9Z"/><rect class="cls-1" x="167.5" y="66.5" width="10" height="26" rx="0.7"/><path class="cls-1" d="M176.8,67a.2.2,0,0,1,.2.2V91.8a.2.2,0,0,1-.2.2h-8.6a.2.2,0,0,1-.2-.2V67.2a.2.2,0,0,1,.2-.2h8.6m0-1h-8.6a1.2,1.2,0,0,0-1.2,1.2V91.8a1.2,1.2,0,0,0,1.2,1.2h8.6a1.2,1.2,0,0,0,1.2-1.2V67.2a1.2,1.2,0,0,0-1.2-1.2Z"/><rect class="cls-1" x="160.5" y="66.5" width="8" height="10" rx="0.7"/><path class="cls-1" d="M167.8,67a.2.2,0,0,1,.2.2v8.6a.2.2,0,0,1-.2.2h-6.6a.2.2,0,0,1-.2-.2V67.2a.2.2,0,0,1,.2-.2h6.6m0-1h-6.6a1.2,1.2,0,0,0-1.2,1.2v8.6a1.2,1.2,0,0,0,1.2,1.2h6.6a1.2,1.2,0,0,0,1.2-1.2V67.2a1.2,1.2,0,0,0-1.2-1.2Z"/><rect class="cls-1" x="188.5" y="48.5" width="29" height="10" rx="0.7"/><path class="cls-1" d="M216.8,49a.2.2,0,0,1,.2.2v8.6a.2.2,0,0,1-.2.2H189.2a.2.2,0,0,1-.2-.2V49.2a.2.2,0,0,1,.2-.2h27.6m0-1H189.2a1.2,1.2,0,0,0-1.2,1.2v8.6a1.2,1.2,0,0,0,1.2,1.2h27.6a1.2,1.2,0,0,0,1.2-1.2V49.2a1.2,1.2,0,0,0-1.2-1.2Z"/><rect class="cls-1" x="188.5" y="82.5" width="29" height="10" rx="0.7"/><path class="cls-1" d="M216.8,83a.2.2,0,0,1,.2.2v8.6a.2.2,0,0,1-.2.2H189.2a.2.2,0,0,1-.2-.2V83.2a.2.2,0,0,1,.2-.2h27.6m0-1H189.2a1.2,1.2,0,0,0-1.2,1.2v8.6a1.2,1.2,0,0,0,1.2,1.2h27.6a1.2,1.2,0,0,0,1.2-1.2V83.2a1.2,1.2,0,0,0-1.2-1.2Z"/><rect class="cls-1" x="188.5" y="48.5" width="10" height="44" rx="0.7"/><path class="cls-1" d="M197.8,49a.2.2,0,0,1,.2.2V91.8a.2.2,0,0,1-.2.2h-8.6a.2.2,0,0,1-.2-.2V49.2a.2.2,0,0,1,.2-.2h8.6m0-1h-8.6a1.2,1.2,0,0,0-1.2,1.2V91.8a1.2,1.2,0,0,0,1.2,1.2h8.6a1.2,1.2,0,0,0,1.2-1.2V49.2a1.2,1.2,0,0,0-1.2-1.2Z"/><rect class="cls-1" x="207.5" y="48.5" width="10" height="44" rx="0.7"/><path class="cls-1" d="M216.8,49a.2.2,0,0,1,.2.2V91.8a.2.2,0,0,1-.2.2h-8.6a.2.2,0,0,1-.2-.2V49.2a.2.2,0,0,1,.2-.2h8.6m0-1h-8.6a1.2,1.2,0,0,0-1.2,1.2V91.8a1.2,1.2,0,0,0,1.2,1.2h8.6a1.2,1.2,0,0,0,1.2-1.2V49.2a1.2,1.2,0,0,0-1.2-1.2Z"/><rect class="cls-1" x="228.5" y="48.5" width="10" height="44" rx="0.7"/><path class="cls-1" d="M237.8,49a.2.2,0,0,1,.2.2V91.8a.2.2,0,0,1-.2.2h-8.6a.2.2,0,0,1-.2-.2V49.2a.2.2,0,0,1,.2-.2h8.6m0-1h-8.6a1.2,1.2,0,0,0-1.2,1.2V91.8a1.2,1.2,0,0,0,1.2,1.2h8.6a1.2,1.2,0,0,0,1.2-1.2V49.2a1.2,1.2,0,0,0-1.2-1.2Z"/><rect class="cls-1" x="261.5" y="48.5" width="10" height="44" rx="0.7"/><path class="cls-1" d="M270.8,49a.2.2,0,0,1,.2.2V91.8a.2.2,0,0,1-.2.2h-8.6a.2.2,0,0,1-.2-.2V49.2a.2.2,0,0,1,.2-.2h8.6m0-1h-8.6a1.2,1.2,0,0,0-1.2,1.2V91.8a1.2,1.2,0,0,0,1.2,1.2h8.6a1.2,1.2,0,0,0,1.2-1.2V49.2a1.2,1.2,0,0,0-1.2-1.2Z"/><rect class="cls-1" x="238.5" y="60.5" width="12" height="11" rx="0.7"/><path class="cls-1" d="M249.8,61a.2.2,0,0,1,.2.2v9.6a.2.2,0,0,1-.2.2H239.2a.2.2,0,0,1-.2-.2V61.2a.2.2,0,0,1,.2-.2h10.6m0-1H239.2a1.2,1.2,0,0,0-1.2,1.2v9.6a1.2,1.2,0,0,0,1.2,1.2h10.6a1.2,1.2,0,0,0,1.2-1.2V61.2a1.2,1.2,0,0,0-1.2-1.2Z"/><rect class="cls-1" x="249.5" y="70.5" width="12" height="11" rx="0.7"/><path class="cls-1" d="M260.8,71a.2.2,0,0,1,.2.2v9.6a.2.2,0,0,1-.2.2H250.2a.2.2,0,0,1-.2-.2V71.2a.2.2,0,0,1,.2-.2h10.6m0-1H250.2a1.2,1.2,0,0,0-1.2,1.2v9.6a1.2,1.2,0,0,0,1.2,1.2h10.6a1.2,1.2,0,0,0,1.2-1.2V71.2a1.2,1.2,0,0,0-1.2-1.2Z"/><rect class="cls-1" x="282.5" y="0.5" width="18" height="92" rx="4.09"/><path class="cls-1" d="M296.41,1A3.59,3.59,0,0,1,300,4.59V88.41A3.59,3.59,0,0,1,296.41,92h-9.82A3.59,3.59,0,0,1,283,88.41V4.59A3.59,3.59,0,0,1,286.59,1h9.82m0-1h-9.82A4.58,4.58,0,0,0,282,4.59V88.41A4.58,4.58,0,0,0,286.59,93h9.82A4.58,4.58,0,0,0,301,88.41V4.59A4.58,4.58,0,0,0,296.41,0Z"/><rect class="cls-1" x="293.5" y="0.5" width="44" height="18" rx="4"/><path class="cls-1" d="M333.5,1A3.5,3.5,0,0,1,337,4.5v10a3.5,3.5,0,0,1-3.5,3.5h-36a3.5,3.5,0,0,1-3.5-3.5V4.5A3.5,3.5,0,0,1,297.5,1h36m0-1h-36A4.49,4.49,0,0,0,293,4.5v10a4.49,4.49,0,0,0,4.5,4.5h36a4.49,4.49,0,0,0,4.5-4.5V4.5A4.49,4.49,0,0,0,333.5,0Z"/><rect class="cls-1" x="294.5" y="38.5" width="44" height="18" rx="4"/><path class="cls-1" d="M334.5,39a3.5,3.5,0,0,1,3.5,3.5v10a3.5,3.5,0,0,1-3.5,3.5h-36a3.5,3.5,0,0,1-3.5-3.5v-10a3.5,3.5,0,0,1,3.5-3.5h36m0-1h-36a4.49,4.49,0,0,0-4.5,4.5v10a4.49,4.49,0,0,0,4.5,4.5h36a4.49,4.49,0,0,0,4.5-4.5v-10a4.49,4.49,0,0,0-4.5-4.5Z"/><rect class="cls-1" x="348.5" y="58.5" width="10" height="34" rx="0.7"/><path class="cls-1" d="M357.8,59a.2.2,0,0,1,.2.2V91.8a.2.2,0,0,1-.2.2h-8.6a.2.2,0,0,1-.2-.2V59.2a.2.2,0,0,1,.2-.2h8.6m0-1h-8.6a1.2,1.2,0,0,0-1.2,1.2V91.8a1.2,1.2,0,0,0,1.2,1.2h8.6a1.2,1.2,0,0,0,1.2-1.2V59.2a1.2,1.2,0,0,0-1.2-1.2Z"/><rect class="cls-1" x="348.5" y="35.5" width="10" height="10" rx="0.7"/><path class="cls-1" d="M357.8,36a.2.2,0,0,1,.2.2v8.6a.2.2,0,0,1-.2.2h-8.6a.2.2,0,0,1-.2-.2V36.2a.2.2,0,0,1,.2-.2h8.6m0-1h-8.6a1.2,1.2,0,0,0-1.2,1.2v8.6a1.2,1.2,0,0,0,1.2,1.2h8.6a1.2,1.2,0,0,0,1.2-1.2V36.2a1.2,1.2,0,0,0-1.2-1.2Z"/><rect class="cls-1" x="369.5" y="48.5" width="9" height="44" rx="1.57"/><path class="cls-1" d="M376.93,49A1.07,1.07,0,0,1,378,50.07V90.93A1.07,1.07,0,0,1,376.93,92h-5.86A1.07,1.07,0,0,1,370,90.93V50.07A1.07,1.07,0,0,1,371.07,49h5.86m0-1h-5.86A2.06,2.06,0,0,0,369,50.07V90.93A2.06,2.06,0,0,0,371.07,93h5.86A2.06,2.06,0,0,0,379,90.93V50.07A2.06,2.06,0,0,0,376.93,48Z"/><rect class="cls-1" x="376.5" y="56.5" width="10" height="10" rx="0.7"/><path class="cls-1" d="M385.8,57a.2.2,0,0,1,.2.2v8.6a.2.2,0,0,1-.2.2h-8.6a.2.2,0,0,1-.2-.2V57.2a.2.2,0,0,1,.2-.2h8.6m0-1h-8.6a1.2,1.2,0,0,0-1.2,1.2v8.6a1.2,1.2,0,0,0,1.2,1.2h8.6a1.2,1.2,0,0,0,1.2-1.2V57.2a1.2,1.2,0,0,0-1.2-1.2Z"/><rect class="cls-1" x="385.5" y="48.5" width="10" height="10" rx="0.7"/><path class="cls-1" d="M394.8,49a.2.2,0,0,1,.2.2v8.6a.2.2,0,0,1-.2.2h-8.6a.2.2,0,0,1-.2-.2V49.2a.2.2,0,0,1,.2-.2h8.6m0-1h-8.6a1.2,1.2,0,0,0-1.2,1.2v8.6a1.2,1.2,0,0,0,1.2,1.2h8.6a1.2,1.2,0,0,0,1.2-1.2V49.2a1.2,1.2,0,0,0-1.2-1.2Z"/><rect class="cls-1" x="406.5" y="48.5" width="10" height="45" rx="0.7"/><path class="cls-1" d="M415.8,49a.2.2,0,0,1,.2.2V92.8a.2.2,0,0,1-.2.2h-8.6a.2.2,0,0,1-.2-.2V49.2a.2.2,0,0,1,.2-.2h8.6m0-1h-8.6a1.2,1.2,0,0,0-1.2,1.2V92.8a1.2,1.2,0,0,0,1.2,1.2h8.6a1.2,1.2,0,0,0,1.2-1.2V49.2a1.2,1.2,0,0,0-1.2-1.2Z"/><rect class="cls-1" x="415.5" y="48.5" width="19" height="10" rx="0.7"/><path class="cls-1" d="M433.8,49a.2.2,0,0,1,.2.2v8.6a.2.2,0,0,1-.2.2H416.2a.2.2,0,0,1-.2-.2V49.2a.2.2,0,0,1,.2-.2h17.6m0-1H416.2a1.2,1.2,0,0,0-1.2,1.2v8.6a1.2,1.2,0,0,0,1.2,1.2h17.6a1.2,1.2,0,0,0,1.2-1.2V49.2a1.2,1.2,0,0,0-1.2-1.2Z"/><rect class="cls-1" x="415.5" y="83.5" width="19" height="10" rx="0.7"/><path class="cls-1" d="M433.8,84a.2.2,0,0,1,.2.2v8.6a.2.2,0,0,1-.2.2H416.2a.2.2,0,0,1-.2-.2V84.2a.2.2,0,0,1,.2-.2h17.6m0-1H416.2a1.2,1.2,0,0,0-1.2,1.2v8.6a1.2,1.2,0,0,0,1.2,1.2h17.6a1.2,1.2,0,0,0,1.2-1.2V84.2a1.2,1.2,0,0,0-1.2-1.2Z"/><rect class="cls-1" x="415.5" y="66.5" width="19" height="9" rx="0.7"/><path class="cls-1" d="M433.8,67a.2.2,0,0,1,.2.2v7.6a.2.2,0,0,1-.2.2H416.2a.2.2,0,0,1-.2-.2V67.2a.2.2,0,0,1,.2-.2h17.6m0-1H416.2a1.2,1.2,0,0,0-1.2,1.2v7.6a1.2,1.2,0,0,0,1.2,1.2h17.6a1.2,1.2,0,0,0,1.2-1.2V67.2a1.2,1.2,0,0,0-1.2-1.2Z"/><rect class="cls-2" x="445.5" y="1.5" width="18" height="92" rx="4.09"/><path class="cls-2" d="M459.41,2A3.59,3.59,0,0,1,463,5.59V89.41A3.59,3.59,0,0,1,459.41,93h-9.82A3.59,3.59,0,0,1,446,89.41V5.59A3.59,3.59,0,0,1,449.59,2h9.82m0-1h-9.82A4.58,4.58,0,0,0,445,5.59V89.41A4.58,4.58,0,0,0,449.59,94h9.82A4.58,4.58,0,0,0,464,89.41V5.59A4.58,4.58,0,0,0,459.41,1Z"/><rect class="cls-2" x="456.5" y="1.5" width="44" height="18" rx="4"/><path class="cls-2" d="M496.5,2A3.5,3.5,0,0,1,500,5.5v10a3.5,3.5,0,0,1-3.5,3.5h-36a3.5,3.5,0,0,1-3.5-3.5V5.5A3.5,3.5,0,0,1,460.5,2h36m0-1h-36A4.49,4.49,0,0,0,456,5.5v10a4.49,4.49,0,0,0,4.5,4.5h36a4.49,4.49,0,0,0,4.5-4.5V5.5A4.49,4.49,0,0,0,496.5,1Z"/><rect class="cls-2" x="456.5" y="75.5" width="44" height="18" rx="4"/><path class="cls-2" d="M496.5,76a3.5,3.5,0,0,1,3.5,3.5v10a3.5,3.5,0,0,1-3.5,3.5h-36a3.5,3.5,0,0,1-3.5-3.5v-10a3.5,3.5,0,0,1,3.5-3.5h36m0-1h-36a4.49,4.49,0,0,0-4.5,4.5v10a4.49,4.49,0,0,0,4.5,4.5h36a4.49,4.49,0,0,0,4.5-4.5v-10a4.49,4.49,0,0,0-4.5-4.5Z"/><rect class="cls-2" x="511.5" y="50.5" width="29" height="10" rx="0.7"/><path class="cls-2" d="M539.8,51a.2.2,0,0,1,.2.2v8.6a.2.2,0,0,1-.2.2H512.2a.2.2,0,0,1-.2-.2V51.2a.2.2,0,0,1,.2-.2h27.6m0-1H512.2a1.2,1.2,0,0,0-1.2,1.2v8.6a1.2,1.2,0,0,0,1.2,1.2h27.6a1.2,1.2,0,0,0,1.2-1.2V51.2a1.2,1.2,0,0,0-1.2-1.2Z"/><rect class="cls-2" x="511.5" y="84.5" width="29" height="10" rx="0.7"/><path class="cls-2" d="M539.8,85a.2.2,0,0,1,.2.2v8.6a.2.2,0,0,1-.2.2H512.2a.2.2,0,0,1-.2-.2V85.2a.2.2,0,0,1,.2-.2h27.6m0-1H512.2a1.2,1.2,0,0,0-1.2,1.2v8.6a1.2,1.2,0,0,0,1.2,1.2h27.6a1.2,1.2,0,0,0,1.2-1.2V85.2a1.2,1.2,0,0,0-1.2-1.2Z"/><rect class="cls-2" x="511.5" y="50.5" width="10" height="44" rx="0.7"/><path class="cls-2" d="M520.8,51a.2.2,0,0,1,.2.2V93.8a.2.2,0,0,1-.2.2h-8.6a.2.2,0,0,1-.2-.2V51.2a.2.2,0,0,1,.2-.2h8.6m0-1h-8.6a1.2,1.2,0,0,0-1.2,1.2V93.8a1.2,1.2,0,0,0,1.2,1.2h8.6a1.2,1.2,0,0,0,1.2-1.2V51.2a1.2,1.2,0,0,0-1.2-1.2Z"/><rect class="cls-2" x="530.5" y="50.5" width="10" height="44" rx="0.7"/><path class="cls-2" d="M539.8,51a.2.2,0,0,1,.2.2V93.8a.2.2,0,0,1-.2.2h-8.6a.2.2,0,0,1-.2-.2V51.2a.2.2,0,0,1,.2-.2h8.6m0-1h-8.6a1.2,1.2,0,0,0-1.2,1.2V93.8a1.2,1.2,0,0,0,1.2,1.2h8.6a1.2,1.2,0,0,0,1.2-1.2V51.2a1.2,1.2,0,0,0-1.2-1.2Z"/><rect class="cls-2" x="551.5" y="50.5" width="9" height="44" rx="1.57"/><path class="cls-2" d="M558.93,51A1.07,1.07,0,0,1,560,52.07V92.93A1.07,1.07,0,0,1,558.93,94h-5.86A1.07,1.07,0,0,1,552,92.93V52.07A1.07,1.07,0,0,1,553.07,51h5.86m0-1h-5.86A2.06,2.06,0,0,0,551,52.07V92.93A2.06,2.06,0,0,0,553.07,95h5.86A2.06,2.06,0,0,0,561,92.93V52.07A2.06,2.06,0,0,0,558.93,50Z"/><rect class="cls-2" x="558.5" y="58.5" width="10" height="10" rx="0.7"/><path class="cls-2" d="M567.8,59a.2.2,0,0,1,.2.2v8.6a.2.2,0,0,1-.2.2h-8.6a.2.2,0,0,1-.2-.2V59.2a.2.2,0,0,1,.2-.2h8.6m0-1h-8.6a1.2,1.2,0,0,0-1.2,1.2v8.6a1.2,1.2,0,0,0,1.2,1.2h8.6a1.2,1.2,0,0,0,1.2-1.2V59.2a1.2,1.2,0,0,0-1.2-1.2Z"/><rect class="cls-2" x="567.5" y="50.5" width="10" height="10" rx="0.7"/><path class="cls-2" d="M576.8,51a.2.2,0,0,1,.2.2v8.6a.2.2,0,0,1-.2.2h-8.6a.2.2,0,0,1-.2-.2V51.2a.2.2,0,0,1,.2-.2h8.6m0-1h-8.6a1.2,1.2,0,0,0-1.2,1.2v8.6a1.2,1.2,0,0,0,1.2,1.2h8.6a1.2,1.2,0,0,0,1.2-1.2V51.2a1.2,1.2,0,0,0-1.2-1.2Z"/><rect class="cls-2" x="578.5" y="50.5" width="9" height="44" rx="1.57"/><path class="cls-2" d="M585.93,51A1.07,1.07,0,0,1,587,52.07V92.93A1.07,1.07,0,0,1,585.93,94h-5.86A1.07,1.07,0,0,1,579,92.93V52.07A1.07,1.07,0,0,1,580.07,51h5.86m0-1h-5.86A2.06,2.06,0,0,0,578,52.07V92.93A2.06,2.06,0,0,0,580.07,95h5.86A2.06,2.06,0,0,0,588,92.93V52.07A2.06,2.06,0,0,0,585.93,50Z"/><rect class="cls-2" x="585.5" y="58.5" width="10" height="10" rx="0.7"/><path class="cls-2" d="M594.8,59a.2.2,0,0,1,.2.2v8.6a.2.2,0,0,1-.2.2h-8.6a.2.2,0,0,1-.2-.2V59.2a.2.2,0,0,1,.2-.2h8.6m0-1h-8.6a1.2,1.2,0,0,0-1.2,1.2v8.6a1.2,1.2,0,0,0,1.2,1.2h8.6a1.2,1.2,0,0,0,1.2-1.2V59.2a1.2,1.2,0,0,0-1.2-1.2Z"/><rect class="cls-2" x="594.5" y="50.5" width="10" height="10" rx="0.7"/><path class="cls-2" d="M603.8,51a.2.2,0,0,1,.2.2v8.6a.2.2,0,0,1-.2.2h-8.6a.2.2,0,0,1-.2-.2V51.2a.2.2,0,0,1,.2-.2h8.6m0-1h-8.6a1.2,1.2,0,0,0-1.2,1.2v8.6a1.2,1.2,0,0,0,1.2,1.2h8.6a1.2,1.2,0,0,0,1.2-1.2V51.2a1.2,1.2,0,0,0-1.2-1.2Z"/><rect class="cls-2" x="605.5" y="50.5" width="9" height="44" rx="1.57"/><path class="cls-2" d="M612.93,51A1.07,1.07,0,0,1,614,52.07V92.93A1.07,1.07,0,0,1,612.93,94h-5.86A1.07,1.07,0,0,1,606,92.93V52.07A1.07,1.07,0,0,1,607.07,51h5.86m0-1h-5.86A2.06,2.06,0,0,0,605,52.07V92.93A2.06,2.06,0,0,0,607.07,95h5.86A2.06,2.06,0,0,0,615,92.93V52.07A2.06,2.06,0,0,0,612.93,50Z"/><rect class="cls-2" x="625.5" y="50.5" width="9" height="44" rx="1.57"/><path class="cls-2" d="M632.93,51A1.07,1.07,0,0,1,634,52.07V92.93A1.07,1.07,0,0,1,632.93,94h-5.86A1.07,1.07,0,0,1,626,92.93V52.07A1.07,1.07,0,0,1,627.07,51h5.86m0-1h-5.86A2.06,2.06,0,0,0,625,52.07V92.93A2.06,2.06,0,0,0,627.07,95h5.86A2.06,2.06,0,0,0,635,92.93V52.07A2.06,2.06,0,0,0,632.93,50Z"/><rect class="cls-2" x="632.5" y="58.5" width="10" height="10" rx="0.7"/><path class="cls-2" d="M641.8,59a.2.2,0,0,1,.2.2v8.6a.2.2,0,0,1-.2.2h-8.6a.2.2,0,0,1-.2-.2V59.2a.2.2,0,0,1,.2-.2h8.6m0-1h-8.6a1.2,1.2,0,0,0-1.2,1.2v8.6a1.2,1.2,0,0,0,1.2,1.2h8.6a1.2,1.2,0,0,0,1.2-1.2V59.2a1.2,1.2,0,0,0-1.2-1.2Z"/><rect class="cls-2" x="641.5" y="50.5" width="10" height="10" rx="0.7"/><path class="cls-2" d="M650.8,51a.2.2,0,0,1,.2.2v8.6a.2.2,0,0,1-.2.2h-8.6a.2.2,0,0,1-.2-.2V51.2a.2.2,0,0,1,.2-.2h8.6m0-1h-8.6a1.2,1.2,0,0,0-1.2,1.2v8.6a1.2,1.2,0,0,0,1.2,1.2h8.6a1.2,1.2,0,0,0,1.2-1.2V51.2a1.2,1.2,0,0,0-1.2-1.2Z"/><rect class="cls-2" x="652.5" y="50.5" width="9" height="44" rx="1.57"/><path class="cls-2" d="M659.93,51A1.07,1.07,0,0,1,661,52.07V92.93A1.07,1.07,0,0,1,659.93,94h-5.86A1.07,1.07,0,0,1,653,92.93V52.07A1.07,1.07,0,0,1,654.07,51h5.86m0-1h-5.86A2.06,2.06,0,0,0,652,52.07V92.93A2.06,2.06,0,0,0,654.07,95h5.86A2.06,2.06,0,0,0,662,92.93V52.07A2.06,2.06,0,0,0,659.93,50Z"/><rect class="cls-2" x="659.5" y="58.5" width="10" height="10" rx="0.7"/><path class="cls-2" d="M668.8,59a.2.2,0,0,1,.2.2v8.6a.2.2,0,0,1-.2.2h-8.6a.2.2,0,0,1-.2-.2V59.2a.2.2,0,0,1,.2-.2h8.6m0-1h-8.6a1.2,1.2,0,0,0-1.2,1.2v8.6a1.2,1.2,0,0,0,1.2,1.2h8.6a1.2,1.2,0,0,0,1.2-1.2V59.2a1.2,1.2,0,0,0-1.2-1.2Z"/><rect class="cls-2" x="668.5" y="50.5" width="10" height="10" rx="0.7"/><path class="cls-2" d="M677.8,51a.2.2,0,0,1,.2.2v8.6a.2.2,0,0,1-.2.2h-8.6a.2.2,0,0,1-.2-.2V51.2a.2.2,0,0,1,.2-.2h8.6m0-1h-8.6a1.2,1.2,0,0,0-1.2,1.2v8.6a1.2,1.2,0,0,0,1.2,1.2h8.6a1.2,1.2,0,0,0,1.2-1.2V51.2a1.2,1.2,0,0,0-1.2-1.2Z"/><rect class="cls-2" x="679.5" y="50.5" width="9" height="44" rx="1.57"/><path class="cls-2" d="M686.93,51A1.07,1.07,0,0,1,688,52.07V92.93A1.07,1.07,0,0,1,686.93,94h-5.86A1.07,1.07,0,0,1,680,92.93V52.07A1.07,1.07,0,0,1,681.07,51h5.86m0-1h-5.86A2.06,2.06,0,0,0,679,52.07V92.93A2.06,2.06,0,0,0,681.07,95h5.86A2.06,2.06,0,0,0,689,92.93V52.07A2.06,2.06,0,0,0,686.93,50Z"/><rect class="cls-2" x="699.5" y="50.5" width="9" height="44" rx="1.57"/><path class="cls-2" d="M706.93,51A1.07,1.07,0,0,1,708,52.07V92.93A1.07,1.07,0,0,1,706.93,94h-5.86A1.07,1.07,0,0,1,700,92.93V52.07A1.07,1.07,0,0,1,701.07,51h5.86m0-1h-5.86A2.06,2.06,0,0,0,699,52.07V92.93A2.06,2.06,0,0,0,701.07,95h5.86A2.06,2.06,0,0,0,709,92.93V52.07A2.06,2.06,0,0,0,706.93,50Z"/><rect class="cls-2" x="706.5" y="84.5" width="14" height="10" rx="0.7"/><path class="cls-2" d="M719.8,85a.2.2,0,0,1,.2.2v8.6a.2.2,0,0,1-.2.2H707.2a.2.2,0,0,1-.2-.2V85.2a.2.2,0,0,1,.2-.2h12.6m0-1H707.2a1.2,1.2,0,0,0-1.2,1.2v8.6a1.2,1.2,0,0,0,1.2,1.2h12.6a1.2,1.2,0,0,0,1.2-1.2V85.2a1.2,1.2,0,0,0-1.2-1.2Z"/><rect class="cls-2" x="719.5" y="50.5" width="9" height="44" rx="1.57"/><path class="cls-2" d="M726.93,51A1.07,1.07,0,0,1,728,52.07V92.93A1.07,1.07,0,0,1,726.93,94h-5.86A1.07,1.07,0,0,1,720,92.93V52.07A1.07,1.07,0,0,1,721.07,51h5.86m0-1h-5.86A2.06,2.06,0,0,0,719,52.07V92.93A2.06,2.06,0,0,0,721.07,95h5.86A2.06,2.06,0,0,0,729,92.93V52.07A2.06,2.06,0,0,0,726.93,50Z"/><rect class="cls-2" x="739.5" y="50.5" width="10" height="44" rx="0.7"/><path class="cls-2" d="M748.8,51a.2.2,0,0,1,.2.2V93.8a.2.2,0,0,1-.2.2h-8.6a.2.2,0,0,1-.2-.2V51.2a.2.2,0,0,1,.2-.2h8.6m0-1h-8.6a1.2,1.2,0,0,0-1.2,1.2V93.8a1.2,1.2,0,0,0,1.2,1.2h8.6a1.2,1.2,0,0,0,1.2-1.2V51.2a1.2,1.2,0,0,0-1.2-1.2Z"/><rect class="cls-2" x="772.5" y="50.5" width="10" height="44" rx="0.7"/><path class="cls-2" d="M781.8,51a.2.2,0,0,1,.2.2V93.8a.2.2,0,0,1-.2.2h-8.6a.2.2,0,0,1-.2-.2V51.2a.2.2,0,0,1,.2-.2h8.6m0-1h-8.6a1.2,1.2,0,0,0-1.2,1.2V93.8a1.2,1.2,0,0,0,1.2,1.2h8.6a1.2,1.2,0,0,0,1.2-1.2V51.2a1.2,1.2,0,0,0-1.2-1.2Z"/><rect class="cls-2" x="749.5" y="62.5" width="12" height="11" rx="0.7"/><path class="cls-2" d="M760.8,63a.2.2,0,0,1,.2.2v9.6a.2.2,0,0,1-.2.2H750.2a.2.2,0,0,1-.2-.2V63.2a.2.2,0,0,1,.2-.2h10.6m0-1H750.2a1.2,1.2,0,0,0-1.2,1.2v9.6a1.2,1.2,0,0,0,1.2,1.2h10.6a1.2,1.2,0,0,0,1.2-1.2V63.2a1.2,1.2,0,0,0-1.2-1.2Z"/><rect class="cls-2" x="760.5" y="72.5" width="12" height="11" rx="0.7"/><path class="cls-2" d="M771.8,73a.2.2,0,0,1,.2.2v9.6a.2.2,0,0,1-.2.2H761.2a.2.2,0,0,1-.2-.2V73.2a.2.2,0,0,1,.2-.2h10.6m0-1H761.2a1.2,1.2,0,0,0-1.2,1.2v9.6a1.2,1.2,0,0,0,1.2,1.2h10.6a1.2,1.2,0,0,0,1.2-1.2V73.2a1.2,1.2,0,0,0-1.2-1.2Z"/><rect class="cls-2" x="793.5" y="71.5" width="10" height="23" rx="0.7"/><path class="cls-2" d="M802.8,72a.2.2,0,0,1,.2.2V93.8a.2.2,0,0,1-.2.2h-8.6a.2.2,0,0,1-.2-.2V72.2a.2.2,0,0,1,.2-.2h8.6m0-1h-8.6a1.2,1.2,0,0,0-1.2,1.2V93.8a1.2,1.2,0,0,0,1.2,1.2h8.6a1.2,1.2,0,0,0,1.2-1.2V72.2a1.2,1.2,0,0,0-1.2-1.2Z"/><rect class="cls-2" x="793.5" y="50.5" width="10" height="10" rx="0.7"/><path class="cls-2" d="M802.8,51a.2.2,0,0,1,.2.2v8.6a.2.2,0,0,1-.2.2h-8.6a.2.2,0,0,1-.2-.2V51.2a.2.2,0,0,1,.2-.2h8.6m0-1h-8.6a1.2,1.2,0,0,0-1.2,1.2v8.6a1.2,1.2,0,0,0,1.2,1.2h8.6a1.2,1.2,0,0,0,1.2-1.2V51.2a1.2,1.2,0,0,0-1.2-1.2Z"/><rect class="cls-2" x="814.5" y="50.5" width="32" height="10" rx="0.7"/><path class="cls-2" d="M845.8,51a.2.2,0,0,1,.2.2v8.6a.2.2,0,0,1-.2.2H815.2a.2.2,0,0,1-.2-.2V51.2a.2.2,0,0,1,.2-.2h30.6m0-1H815.2a1.2,1.2,0,0,0-1.2,1.2v8.6a1.2,1.2,0,0,0,1.2,1.2h30.6a1.2,1.2,0,0,0,1.2-1.2V51.2a1.2,1.2,0,0,0-1.2-1.2Z"/><rect class="cls-2" x="825.5" y="60.5" width="10" height="34" rx="0.7"/><path class="cls-2" d="M834.8,61a.2.2,0,0,1,.2.2V93.8a.2.2,0,0,1-.2.2h-8.6a.2.2,0,0,1-.2-.2V61.2a.2.2,0,0,1,.2-.2h8.6m0-1h-8.6a1.2,1.2,0,0,0-1.2,1.2V93.8a1.2,1.2,0,0,0,1.2,1.2h8.6a1.2,1.2,0,0,0,1.2-1.2V61.2a1.2,1.2,0,0,0-1.2-1.2Z"/><rect class="cls-2" x="857.5" y="50.5" width="10" height="10" rx="0.7"/><path class="cls-2" d="M866.8,51a.2.2,0,0,1,.2.2v8.6a.2.2,0,0,1-.2.2h-8.6a.2.2,0,0,1-.2-.2V51.2a.2.2,0,0,1,.2-.2h8.6m0-1h-8.6a1.2,1.2,0,0,0-1.2,1.2v8.6a1.2,1.2,0,0,0,1.2,1.2h8.6a1.2,1.2,0,0,0,1.2-1.2V51.2a1.2,1.2,0,0,0-1.2-1.2Z"/><rect class="cls-2" x="879.5" y="71.5" width="10" height="24" rx="0.7"/><path class="cls-2" d="M888.8,72a.2.2,0,0,1,.2.2V94.8a.2.2,0,0,1-.2.2h-8.6a.2.2,0,0,1-.2-.2V72.2a.2.2,0,0,1,.2-.2h8.6m0-1h-8.6a1.2,1.2,0,0,0-1.2,1.2V94.8a1.2,1.2,0,0,0,1.2,1.2h8.6a1.2,1.2,0,0,0,1.2-1.2V72.2a1.2,1.2,0,0,0-1.2-1.2Z"/><rect class="cls-2" x="868.5" y="61.5" width="10" height="10" rx="0.7"/><path class="cls-2" d="M877.8,62a.2.2,0,0,1,.2.2v8.6a.2.2,0,0,1-.2.2h-8.6a.2.2,0,0,1-.2-.2V62.2a.2.2,0,0,1,.2-.2h8.6m0-1h-8.6a1.2,1.2,0,0,0-1.2,1.2v8.6a1.2,1.2,0,0,0,1.2,1.2h8.6a1.2,1.2,0,0,0,1.2-1.2V62.2a1.2,1.2,0,0,0-1.2-1.2Z"/><rect class="cls-2" x="862.5" y="56.5" width="10" height="10" rx="0.7"/><path class="cls-2" d="M871.8,57a.2.2,0,0,1,.2.2v8.6a.2.2,0,0,1-.2.2h-8.6a.2.2,0,0,1-.2-.2V57.2a.2.2,0,0,1,.2-.2h8.6m0-1h-8.6a1.2,1.2,0,0,0-1.2,1.2v8.6a1.2,1.2,0,0,0,1.2,1.2h8.6a1.2,1.2,0,0,0,1.2-1.2V57.2a1.2,1.2,0,0,0-1.2-1.2Z"/><rect class="cls-2" x="873.5" y="65.5" width="10" height="10" rx="0.7"/><path class="cls-2" d="M882.8,66a.2.2,0,0,1,.2.2v8.6a.2.2,0,0,1-.2.2h-8.6a.2.2,0,0,1-.2-.2V66.2a.2.2,0,0,1,.2-.2h8.6m0-1h-8.6a1.2,1.2,0,0,0-1.2,1.2v8.6a1.2,1.2,0,0,0,1.2,1.2h8.6a1.2,1.2,0,0,0,1.2-1.2V66.2a1.2,1.2,0,0,0-1.2-1.2Z"/><rect class="cls-2" x="886.5" y="65.5" width="10" height="10" rx="0.7"/><path class="cls-2" d="M895.8,66a.2.2,0,0,1,.2.2v8.6a.2.2,0,0,1-.2.2h-8.6a.2.2,0,0,1-.2-.2V66.2a.2.2,0,0,1,.2-.2h8.6m0-1h-8.6a1.2,1.2,0,0,0-1.2,1.2v8.6a1.2,1.2,0,0,0,1.2,1.2h8.6a1.2,1.2,0,0,0,1.2-1.2V66.2a1.2,1.2,0,0,0-1.2-1.2Z"/><rect class="cls-2" x="891.5" y="60.5" width="10" height="10" rx="0.7"/><path class="cls-2" d="M900.8,61a.2.2,0,0,1,.2.2v8.6a.2.2,0,0,1-.2.2h-8.6a.2.2,0,0,1-.2-.2V61.2a.2.2,0,0,1,.2-.2h8.6m0-1h-8.6a1.2,1.2,0,0,0-1.2,1.2v8.6a1.2,1.2,0,0,0,1.2,1.2h8.6a1.2,1.2,0,0,0,1.2-1.2V61.2a1.2,1.2,0,0,0-1.2-1.2Z"/><rect class="cls-2" x="896.5" y="56.5" width="10" height="10" rx="0.7"/><path class="cls-2" d="M905.8,57a.2.2,0,0,1,.2.2v8.6a.2.2,0,0,1-.2.2h-8.6a.2.2,0,0,1-.2-.2V57.2a.2.2,0,0,1,.2-.2h8.6m0-1h-8.6a1.2,1.2,0,0,0-1.2,1.2v8.6a1.2,1.2,0,0,0,1.2,1.2h8.6a1.2,1.2,0,0,0,1.2-1.2V57.2a1.2,1.2,0,0,0-1.2-1.2Z"/><rect class="cls-2" x="901.5" y="50.5" width="10" height="10" rx="0.7"/><path class="cls-2" d="M910.8,51a.2.2,0,0,1,.2.2v8.6a.2.2,0,0,1-.2.2h-8.6a.2.2,0,0,1-.2-.2V51.2a.2.2,0,0,1,.2-.2h8.6m0-1h-8.6a1.2,1.2,0,0,0-1.2,1.2v8.6a1.2,1.2,0,0,0,1.2,1.2h8.6a1.2,1.2,0,0,0,1.2-1.2V51.2a1.2,1.2,0,0,0-1.2-1.2Z"/></g></g></svg>